<svg width="124" height="37" viewBox="0 0 124 37" fill="none" xmlns="http://www.w3.org/2000/svg">
<g clip-path="url(#clip0_4971_732)">
<path d="M122.785 32.4134C122.785 34.3659 121.213 35.9475 119.269 35.9475H4.2063C2.26304 35.9475 0.685699 34.3659 0.685699 32.4134V4.23011C0.685699 2.27852 2.26304 0.691406 4.2063 0.691406H119.268C121.213 0.691406 122.784 2.27852 122.784 4.23011L122.785 32.4134Z" fill="#020204"/>
<path d="M118.898 0.733918C121.015 0.733918 122.738 2.45937 122.738 4.57983V32.0588C122.738 34.1793 121.015 35.9047 118.898 35.9047H4.57301C2.4557 35.9047 0.732825 34.1793 0.732825 32.0588V4.57983C0.732825 2.45937 2.4557 0.733918 4.57301 0.733918H118.898ZM118.898 0H4.57301C2.059 0 0 2.06207 0 4.57983V32.0588C0 34.5766 2.059 36.6386 4.57301 36.6386H118.898C121.412 36.6386 123.471 34.5766 123.471 32.0588V4.57983C123.471 2.06207 121.412 0 118.898 0Z" fill="white"/>
<path d="M27.5548 18.1212C27.5282 15.1691 29.9684 13.7328 30.08 13.666C28.698 11.6481 26.5561 11.3723 25.8033 11.3504C24.0043 11.1608 22.2592 12.4285 21.3428 12.4285C20.4081 12.4285 18.9969 11.3687 17.4759 11.3999C15.5186 11.4301 13.6876 12.565 12.6833 14.3273C10.6109 17.9206 12.1566 23.2012 14.1421 26.1057C15.1354 27.5282 16.2961 29.1165 17.8152 29.0606C19.3014 28.9992 19.8566 28.1117 21.6501 28.1117C23.4272 28.1117 23.9485 29.0606 25.4979 29.0249C27.0929 28.9992 28.0972 27.596 29.0557 26.1607C30.2035 24.5302 30.6644 22.9246 30.6827 22.8421C30.6452 22.8293 27.585 21.6596 27.5548 18.1212Z" fill="white"/>
<path d="M24.628 9.43974C25.4274 8.43858 25.9744 7.07652 25.8225 5.69434C24.6655 5.74563 23.2187 6.4958 22.3855 7.47497C21.6483 8.33783 20.9898 9.75208 21.1599 11.0821C22.4596 11.1791 23.794 10.4253 24.628 9.43974Z" fill="white"/>
<path d="M44.8609 9.16771C44.8609 10.2458 44.538 11.0573 43.8932 11.6024C43.296 12.1052 42.4472 12.3571 41.3479 12.3571C40.8028 12.3571 40.3363 12.3333 39.9458 12.2857V6.39507C40.4552 6.31264 41.004 6.27051 41.5967 6.27051C42.6439 6.27051 43.4332 6.49858 43.9654 6.95473C44.5618 7.47042 44.8609 8.20779 44.8609 9.16771ZM43.8503 9.1943C43.8503 8.49539 43.6655 7.95958 43.296 7.58583C42.9265 7.21304 42.3868 7.02618 41.6762 7.02618C41.3744 7.02618 41.1174 7.04633 40.9043 7.08846V11.5666C41.0223 11.585 41.2381 11.5932 41.5519 11.5932C42.2853 11.5932 42.8515 11.3889 43.2503 10.9804C43.649 10.5719 43.8503 9.97654 43.8503 9.1943Z" fill="white"/>
<path d="M50.22 10.1087C50.22 10.7727 50.0307 11.3168 49.652 11.7436C49.255 12.1824 48.7292 12.4013 48.0725 12.4013C47.4396 12.4013 46.9356 12.1915 46.5597 11.7702C46.1847 11.3498 45.9973 10.8195 45.9973 10.1801C45.9973 9.51143 46.1902 8.96275 46.578 8.53687C46.9658 8.1109 47.4872 7.89746 48.1439 7.89746C48.7767 7.89746 49.2853 8.10728 49.6703 8.52769C50.0362 8.93624 50.22 9.46379 50.22 10.1087ZM49.2258 10.1398C49.2258 9.74137 49.1399 9.39966 48.9688 9.11484C48.7676 8.77043 48.4814 8.59823 48.1091 8.59823C47.724 8.59823 47.4314 8.77043 47.2301 9.11484C47.0582 9.39966 46.9731 9.74684 46.9731 10.1572C46.9731 10.5556 47.0592 10.8973 47.2301 11.1821C47.4377 11.5265 47.7267 11.6987 48.0999 11.6987C48.4658 11.6987 48.753 11.5238 48.9597 11.173C49.1371 10.8827 49.2258 10.5383 49.2258 10.1398Z" fill="white"/>
<path d="M57.4043 7.98633L56.0553 12.3042H55.1772L54.6184 10.4293C54.4767 9.96113 54.3614 9.49585 54.2718 9.0342H54.2544C54.1712 9.50865 54.0559 9.97307 53.9078 10.4293L53.3142 12.3042H52.4261L51.1576 7.98633H52.1426L52.6301 10.039C52.7481 10.5245 52.845 10.987 52.9227 11.4249H52.9401C53.0115 11.064 53.1294 10.6042 53.2959 10.0482L53.9078 7.98725H54.6888L55.2751 10.0042C55.4168 10.4961 55.5321 10.9696 55.6208 11.4258H55.6473C55.7123 10.9816 55.8102 10.508 55.94 10.0042L56.4632 7.98725H57.4043V7.98633Z" fill="white"/>
<path d="M62.3734 12.3041H61.4149V9.83092C61.4149 9.06887 61.1259 8.68785 60.546 8.68785C60.2615 8.68785 60.032 8.79222 59.8536 9.00196C59.6771 9.21171 59.5875 9.45907 59.5875 9.74212V12.3031H58.629V9.21995C58.629 8.84078 58.6171 8.42954 58.5943 7.98439H59.4366L59.4814 8.6594H59.5079C59.6195 8.44966 59.786 8.27653 60.0045 8.13824C60.2643 7.97699 60.5552 7.89551 60.8734 7.89551C61.2758 7.89551 61.6106 8.02555 61.8767 8.28663C62.2079 8.60629 62.3734 9.08352 62.3734 9.71737V12.3041Z" fill="white"/>
<path d="M65.0175 12.3039H64.06V6.00488H65.0175V12.3039Z" fill="white"/>
<path d="M70.6593 10.1096C70.6593 10.7736 70.47 11.3177 70.0913 11.7446C69.6944 12.1833 69.1676 12.4023 68.5118 12.4023C67.878 12.4023 67.374 12.1925 66.9991 11.7711C66.624 11.3507 66.4366 10.8204 66.4366 10.181C66.4366 9.51233 66.6295 8.96373 67.0174 8.53777C67.4052 8.11188 67.9264 7.89844 68.5822 7.89844C69.216 7.89844 69.7237 8.10818 70.1096 8.52859C70.4755 8.93713 70.6593 9.46477 70.6593 10.1096ZM69.6642 10.1407C69.6642 9.74227 69.5783 9.40064 69.4072 9.11574C69.2069 8.77133 68.9197 8.59912 68.5484 8.59912C68.1624 8.59912 67.8698 8.77133 67.6694 9.11574C67.4975 9.40064 67.4125 9.74774 67.4125 10.1581C67.4125 10.5566 67.4984 10.8982 67.6694 11.1831C67.8771 11.5275 68.1661 11.6997 68.5392 11.6997C68.9051 11.6997 69.1914 11.5247 69.3981 11.1739C69.5764 10.8836 69.6642 10.5392 69.6642 10.1407Z" fill="white"/>
<path d="M75.2997 12.3042H74.439L74.3677 11.8069H74.3412C74.0467 12.2035 73.6269 12.4023 73.0817 12.4023C72.6748 12.4023 72.3455 12.2712 72.0976 12.0111C71.8726 11.7748 71.7602 11.4808 71.7602 11.1318C71.7602 10.6042 71.9797 10.2021 72.4214 9.92365C72.8622 9.64515 73.4823 9.50871 74.2808 9.51511V9.43448C74.2808 8.86568 73.9827 8.58178 73.3854 8.58178C72.9601 8.58178 72.5851 8.68893 72.2614 8.90145L72.0665 8.27121C72.4671 8.023 72.9619 7.89844 73.5455 7.89844C74.6723 7.89844 75.2375 8.49383 75.2375 9.68454V11.2747C75.2375 11.7061 75.2585 12.0496 75.2997 12.3042ZM74.3046 10.8204V10.1544C73.2473 10.1362 72.7186 10.4265 72.7186 11.0246C72.7186 11.2499 72.779 11.4185 72.9025 11.5311C73.0259 11.6438 73.1832 11.6997 73.3708 11.6997C73.5811 11.6997 73.7777 11.6328 73.957 11.5C74.1372 11.3663 74.2479 11.1968 74.289 10.9889C74.2991 10.9422 74.3046 10.8854 74.3046 10.8204Z" fill="white"/>
<path d="M80.7457 12.3039H79.8947L79.8498 11.6106H79.8234C79.5514 12.1382 79.0887 12.402 78.4385 12.402C77.9193 12.402 77.4866 12.1977 77.1436 11.7892C76.8006 11.3807 76.6297 10.8503 76.6297 10.1991C76.6297 9.5002 76.8153 8.93417 77.1884 8.50181C77.5496 8.09874 77.9921 7.89725 78.5191 7.89725C79.098 7.89725 79.5034 8.09235 79.7335 8.48347H79.7521V6.00488H80.7116V11.1407C80.7116 11.5612 80.7224 11.9486 80.7457 12.3039ZM79.7521 10.483V9.76313C79.7521 9.63856 79.7428 9.53774 79.7258 9.46081C79.6715 9.23002 79.5553 9.03585 79.3786 8.87921C79.2003 8.72258 78.9857 8.6438 78.7377 8.6438C78.3804 8.6438 78.1006 8.78579 77.8945 9.07061C77.6906 9.35551 77.5876 9.71911 77.5876 10.1633C77.5876 10.5902 77.6852 10.9364 77.8821 11.203C78.089 11.4869 78.3695 11.6289 78.7198 11.6289C79.0345 11.6289 79.2856 11.5108 79.477 11.2735C79.6615 11.0546 79.7521 10.7908 79.7521 10.483Z" fill="white"/>
<path d="M88.9429 10.1096C88.9429 10.7736 88.7538 11.3177 88.3748 11.7446C87.978 12.1833 87.4533 12.4023 86.7954 12.4023C86.1637 12.4023 85.6592 12.1925 85.2826 11.7711C84.9075 11.3507 84.7199 10.8204 84.7199 10.181C84.7199 9.51233 84.9129 8.96373 85.3012 8.53777C85.6887 8.11188 86.2102 7.89844 86.8674 7.89844C87.4998 7.89844 88.009 8.10818 88.3934 8.52859C88.7592 8.93713 88.9429 9.46477 88.9429 10.1096ZM87.9493 10.1407C87.9493 9.74227 87.8641 9.40064 87.6928 9.11574C87.4905 8.77133 87.2053 8.59912 86.8318 8.59912C86.4482 8.59912 86.1552 8.77133 85.9529 9.11574C85.7809 9.40064 85.6964 9.74774 85.6964 10.1581C85.6964 10.5566 85.7824 10.8982 85.9529 11.1831C86.1606 11.5275 86.4497 11.6997 86.8232 11.6997C87.189 11.6997 87.4766 11.5247 87.6835 11.1739C87.8602 10.8836 87.9493 10.5392 87.9493 10.1407Z" fill="white"/>
<path d="M94.0959 12.3041H93.1387V9.83099C93.1387 9.06887 92.8496 8.68785 92.2684 8.68785C91.984 8.68785 91.7546 8.7923 91.5771 9.00204C91.3996 9.21178 91.3113 9.45907 91.3113 9.74212V12.3031H90.3518V9.22003C90.3518 8.84078 90.341 8.42954 90.3177 7.98439H91.1594L91.2043 8.65948H91.2307C91.3431 8.44966 91.5097 8.27661 91.7275 8.13824C91.9879 7.97706 92.2777 7.89551 92.597 7.89551C92.9985 7.89551 93.3333 8.02562 93.5991 8.28663C93.9316 8.60629 94.0959 9.08352 94.0959 9.71737V12.3041Z" fill="white"/>
<path d="M100.547 8.70455H99.4914V10.8021C99.4914 11.3352 99.679 11.6017 100.05 11.6017C100.222 11.6017 100.365 11.5871 100.477 11.5569L100.502 12.2851C100.313 12.3565 100.064 12.3922 99.7572 12.3922C99.379 12.3922 99.0845 12.2768 98.8714 12.046C98.6575 11.8152 98.5513 11.4268 98.5513 10.8818V8.70455H97.9212V7.98552H98.5513V7.19411L99.4906 6.91016V7.98459H100.546V8.70455H100.547Z" fill="white"/>
<path d="M105.622 12.3039H104.663V9.84923C104.663 9.07524 104.374 8.68774 103.795 8.68774C103.35 8.68774 103.046 8.91213 102.88 9.36098C102.852 9.45533 102.836 9.57073 102.836 9.70632V12.3031H101.878V6.00488H102.836V8.60711H102.853C103.156 8.13359 103.588 7.89725 104.148 7.89725C104.546 7.89725 104.874 8.02736 105.135 8.28837C105.459 8.61358 105.622 9.0972 105.622 9.73653V12.3039Z" fill="white"/>
<path d="M110.856 9.94053C110.856 10.1127 110.843 10.2574 110.82 10.3756H107.946C107.958 10.8024 108.095 11.1276 108.361 11.3529C108.605 11.5544 108.918 11.6552 109.303 11.6552C109.728 11.6552 110.116 11.5874 110.465 11.4509L110.615 12.1177C110.207 12.2954 109.725 12.3843 109.168 12.3843C108.501 12.3843 107.975 12.1874 107.594 11.7935C107.212 11.3996 107.023 10.8712 107.023 10.2079C107.023 9.55673 107.2 9.01445 107.555 8.58209C107.927 8.12044 108.429 7.88965 109.062 7.88965C109.683 7.88965 110.153 8.12044 110.472 8.58209C110.729 8.94846 110.856 9.40187 110.856 9.94053ZM109.941 9.69224C109.948 9.40742 109.886 9.16191 109.755 8.95494C109.589 8.68839 109.335 8.55465 108.993 8.55465C108.68 8.55465 108.425 8.68469 108.23 8.94577C108.071 9.15366 107.977 9.40187 107.946 9.69224H109.941Z" fill="white"/>
<path d="M49.0649 28.8567H46.9879L45.8501 25.2762H41.8953L40.8115 28.8567H38.7894L42.7075 16.667H45.1275L49.0649 28.8567ZM45.5071 23.774L44.4782 20.591C44.3694 20.2659 44.1654 19.5001 43.8645 18.2947H43.8279C43.7081 18.8131 43.5151 19.5789 43.2499 20.591L42.2392 23.774H45.5071Z" fill="white"/>
<path d="M59.1416 24.3539C59.1416 25.8487 58.7383 27.0303 57.9316 27.8978C57.2091 28.6699 56.3119 29.0555 55.2409 29.0555C54.0848 29.0555 53.2544 28.6397 52.7486 27.808H52.712V32.4382H50.7621V22.9607C50.7621 22.0209 50.7374 21.0564 50.6898 20.0672H52.4047L52.5135 21.4604H52.5501C53.2004 20.4107 54.1873 19.8867 55.5116 19.8867C56.5469 19.8867 57.4112 20.2962 58.1027 21.116C58.7959 21.9367 59.1416 23.0157 59.1416 24.3539ZM57.1552 24.4253C57.1552 23.5698 56.9631 22.8645 56.5772 22.3094C56.1555 21.7306 55.5893 21.4411 54.8796 21.4411C54.3986 21.4411 53.9614 21.6024 53.5709 21.9202C53.1794 22.2408 52.9233 22.6593 52.8035 23.1778C52.7431 23.4196 52.7129 23.6175 52.7129 23.7732V25.2387C52.7129 25.8781 52.9086 26.4176 53.3001 26.8581C53.6915 27.2987 54.2001 27.5186 54.8257 27.5186C55.5601 27.5186 56.1317 27.2346 56.5405 26.6685C56.9502 26.1016 57.1552 25.3542 57.1552 24.4253Z" fill="white"/>
<path d="M69.2354 24.3539C69.2354 25.8487 68.8321 27.0303 68.0245 27.8978C67.3029 28.6699 66.4056 29.0555 65.3347 29.0555C64.1786 29.0555 63.3481 28.6397 62.8433 27.808H62.8067V32.4382H60.8568V22.9607C60.8568 22.0209 60.8321 21.0564 60.7845 20.0672H62.4994L62.6082 21.4604H62.6448C63.2942 20.4107 64.281 19.8867 65.6063 19.8867C66.6407 19.8867 67.505 20.2962 68.1983 21.116C68.8888 21.9367 69.2354 23.0157 69.2354 24.3539ZM67.2489 24.4253C67.2489 23.5698 67.0559 22.8645 66.67 22.3094C66.2483 21.7306 65.684 21.4411 64.9734 21.4411C64.4914 21.4411 64.0551 21.6024 63.6637 21.9202C63.2722 22.2408 63.017 22.6593 62.8972 23.1778C62.8378 23.4196 62.8067 23.6175 62.8067 23.7732V25.2387C62.8067 25.8781 63.0025 26.4176 63.3921 26.8581C63.7835 27.2978 64.292 27.5186 64.9194 27.5186C65.6539 27.5186 66.2254 27.2346 66.6343 26.6685C67.0441 26.1016 67.2489 25.3542 67.2489 24.4253Z" fill="white"/>
<path d="M80.5217 25.4382C80.5217 26.4751 80.1629 27.3187 79.4414 27.9699C78.6478 28.6816 77.5442 29.0371 76.1255 29.0371C74.8159 29.0371 73.7659 28.7842 72.9711 28.2777L73.4229 26.65C74.2789 27.1685 75.2182 27.4286 76.2417 27.4286C76.9761 27.4286 77.5481 27.2619 77.9588 26.9303C78.3672 26.5988 78.5711 26.1536 78.5711 25.5985C78.5711 25.1039 78.4029 24.6871 78.0658 24.3492C77.7294 24.0112 77.1692 23.697 76.3862 23.4066C74.2552 22.6106 73.1906 21.4446 73.1906 19.9112C73.1906 18.9092 73.5638 18.0876 74.311 17.4482C75.0555 16.8079 76.0487 16.4883 77.2908 16.4883C78.3982 16.4883 79.3182 16.6816 80.0529 17.0672L79.5654 18.6592C78.8795 18.2854 78.1037 18.0986 77.2359 18.0986C76.5499 18.0986 76.014 18.2681 75.6298 18.6051C75.3052 18.9065 75.1424 19.2738 75.1424 19.7088C75.1424 20.1907 75.328 20.5891 75.7012 20.9024C76.0259 21.1918 76.6158 21.505 77.4719 21.843C78.5191 22.2653 79.2879 22.759 79.7832 23.3251C80.2761 23.8893 80.5217 24.5955 80.5217 25.4382Z" fill="white"/>
<path d="M86.9697 21.5326H84.8206V25.8C84.8206 26.8855 85.1988 27.4277 85.9583 27.4277C86.3063 27.4277 86.5954 27.3975 86.824 27.3371L86.8783 28.82C86.4939 28.9638 85.9886 29.0362 85.3616 29.0362C84.592 29.0362 83.9898 28.8007 83.5558 28.3308C83.1226 27.8601 82.9048 27.0705 82.9048 25.9613V21.5307H81.6245V20.0652H82.9048V18.4558L84.8206 17.877V20.0652H86.9697V21.5326Z" fill="white"/>
<path d="M96.6665 24.3887C96.6665 25.7397 96.2806 26.849 95.5102 27.7164C94.7027 28.6095 93.6308 29.0546 92.2947 29.0546C91.0067 29.0546 89.9814 28.6269 89.2172 27.7713C88.4523 26.9159 88.0702 25.8359 88.0702 24.5343C88.0702 23.1723 88.4631 22.0566 89.2529 21.1892C90.0403 20.3209 91.1028 19.8867 92.4389 19.8867C93.7269 19.8867 94.7631 20.3145 95.5451 21.1709C96.293 22.0017 96.6665 23.0743 96.6665 24.3887ZM94.643 24.4519C94.643 23.6413 94.4702 22.9461 94.1199 22.3663C93.7114 21.6646 93.1271 21.3147 92.3691 21.3147C91.5856 21.3147 90.9904 21.6655 90.5812 22.3663C90.2309 22.947 90.0581 23.6532 90.0581 24.4885C90.0581 25.2992 90.2309 25.9944 90.5812 26.5733C91.0028 27.2749 91.5918 27.6248 92.3521 27.6248C93.0969 27.6248 93.6812 27.2676 94.1028 26.555C94.4624 25.9642 94.643 25.2616 94.643 24.4519Z" fill="white"/>
<path d="M103.005 21.7846C102.812 21.7489 102.607 21.7306 102.391 21.7306C101.705 21.7306 101.175 21.9898 100.801 22.5092C100.476 22.9671 100.314 23.546 100.314 24.2449V28.8568H98.3645L98.3831 22.8352C98.3831 21.8221 98.3583 20.8997 98.3103 20.0681H100.008L100.08 21.7498H100.134C100.339 21.1719 100.664 20.7065 101.109 20.3575C101.543 20.0434 102.012 19.8867 102.518 19.8867C102.698 19.8867 102.861 19.8995 103.005 19.9224V21.7846Z" fill="white"/>
<path d="M111.726 24.046C111.726 24.3959 111.702 24.6908 111.654 24.9318H105.805C105.827 25.8001 106.11 26.4642 106.653 26.9222C107.146 27.3316 107.783 27.5367 108.567 27.5367C109.432 27.5367 110.223 27.3985 110.934 27.121L111.239 28.4766C110.408 28.8393 109.428 29.0198 108.296 29.0198C106.935 29.0198 105.867 28.6185 105.09 27.817C104.314 27.0156 103.926 25.9394 103.926 24.5892C103.926 23.2638 104.287 22.16 105.01 21.2798C105.767 20.34 106.791 19.8701 108.079 19.8701C109.344 19.8701 110.301 20.34 110.951 21.2798C111.467 22.0263 111.726 22.9496 111.726 24.046ZM109.866 23.5395C109.879 22.9606 109.752 22.4605 109.487 22.0382C109.15 21.495 108.631 21.2239 107.933 21.2239C107.296 21.2239 106.777 21.4886 106.381 22.0199C106.056 22.4422 105.863 22.9487 105.805 23.5386H109.866V23.5395Z" fill="white"/>
</g>
<defs>
<clipPath id="clip0_4971_732">
<rect width="124" height="37" fill="white"/>
</clipPath>
</defs>
</svg>
