<svg width="26" height="26" viewBox="0 0 26 26" fill="none" xmlns="http://www.w3.org/2000/svg">
<path d="M7.5835 15.1668L10.0675 12.6829C10.4905 12.2598 11.1765 12.2598 11.5995 12.6829L13.3175 14.4008C13.7405 14.8238 14.4265 14.8238 14.8495 14.4008L18.4168 10.8335M18.4168 10.8335V13.5418M18.4168 10.8335H15.7085" stroke="#E6E6E6" stroke-width="2" stroke-linecap="round" stroke-linejoin="round"/>
<path d="M23.8332 12.9998C23.8332 18.1067 23.8332 20.6602 22.2466 22.2466C20.6602 23.8332 18.1067 23.8332 12.9998 23.8332C7.89295 23.8332 5.33951 23.8332 3.75301 22.2466C2.1665 20.6602 2.1665 18.1067 2.1665 12.9998C2.1665 7.89295 2.1665 5.33951 3.75301 3.75301C5.33951 2.1665 7.89295 2.1665 12.9998 2.1665C18.1067 2.1665 20.6602 2.1665 22.2466 3.75301C23.3016 4.8079 23.6551 6.29026 23.7735 8.6665" stroke="#E6E6E6" stroke-width="2" stroke-linecap="round"/>
</svg>
