<svg width="123" height="36" viewBox="0 0 123 36" fill="none" xmlns="http://www.w3.org/2000/svg">
<g clip-path="url(#clip0_4971_712)">
<path d="M118.461 35.7327H4.97459C2.47903 35.7327 0.43515 33.7216 0.43515 31.2661V4.46659C0.43515 2.01108 2.47903 0 4.97459 0H118.461C120.956 0 123 2.01108 123 4.46659V31.2661C123 33.7216 120.956 35.7327 118.461 35.7327Z" fill="#020204"/>
<path d="M118.461 0.71577C120.562 0.71577 122.273 2.39856 122.273 4.46659V31.2661C122.273 33.3341 120.562 35.0169 118.461 35.0169H4.97459C2.87283 35.0169 1.1626 33.3341 1.1626 31.2661V4.46659C1.1626 2.39856 2.87283 0.71577 4.97459 0.71577H118.461ZM118.461 0H4.97459C2.47903 0 0.43515 2.01108 0.43515 4.46659V31.2661C0.43515 33.7216 2.47903 35.7327 4.97459 35.7327H118.461C120.956 35.7327 123 33.7216 123 31.2661V4.46659C123 2.01108 120.956 0 118.461 0Z" fill="white"/>
<path d="M9.22795 6.73469C8.96122 7.00939 8.80688 7.43706 8.80688 7.99088V27.7466C8.80688 28.3005 8.96122 28.7282 9.22795 29.0029L9.29378 29.0631L20.5447 17.9972V17.7359L9.29378 6.66992L9.22795 6.73469Z" fill="white"/>
<path d="M25.6526 21.6873L21.9065 17.9967V17.7354L25.6572 14.0449L25.7412 14.0929L30.183 16.5797C31.4506 17.2854 31.4506 18.4467 30.183 19.1569L25.7412 21.6392L25.6526 21.6873Z" fill="white"/>
<path d="M25.0614 22.3269L21.2267 18.5537L9.90985 29.69C10.3309 30.1255 11.0175 30.178 11.7982 29.7425L25.0614 22.3269Z" fill="white"/>
<path d="M25.0614 13.4068L11.7982 5.99113C11.0175 5.5601 10.3309 5.61257 9.90985 6.04807L21.2267 17.1799L25.0614 13.4068Z" fill="white"/>
<path d="M43.4845 9.15109C43.4845 9.89706 43.2576 10.4944 42.8104 10.94C42.2963 11.4682 41.6268 11.7339 40.8062 11.7339C40.022 11.7339 39.3525 11.4637 38.8033 10.931C38.2528 10.3906 37.9782 9.72732 37.9782 8.93333C37.9782 8.13941 38.2528 7.47614 38.8033 6.94015C39.3525 6.40304 40.022 6.13281 40.8062 6.13281C41.1966 6.13281 41.5689 6.2121 41.9241 6.35949C42.2782 6.508 42.5664 6.709 42.7752 6.9569L42.3009 7.42812C41.9366 7.00492 41.4406 6.7961 40.8062 6.7961C40.2343 6.7961 39.7384 6.99263 39.3173 7.38904C38.9008 7.78654 38.692 8.30134 38.692 8.93333C38.692 9.5654 38.9008 10.0846 39.3173 10.4822C39.7384 10.8741 40.2343 11.0751 40.8062 11.0751C41.4134 11.0751 41.9241 10.8741 42.3269 10.4777C42.5925 10.2152 42.7434 9.85347 42.7832 9.39122H40.8062V8.74575H43.4437C43.4755 8.88538 43.4845 9.02049 43.4845 9.15109Z" fill="white" stroke="white" stroke-width="0.16" stroke-miterlimit="10"/>
<path d="M47.6689 6.91356H45.1915V8.6109H47.4249V9.25629H45.1915V10.9536H47.6689V11.6113H44.4902V6.25586H47.6689V6.91356Z" fill="white" stroke="white" stroke-width="0.16" stroke-miterlimit="10"/>
<path d="M50.6214 11.6113H49.92V6.91356H48.4004V6.25586H52.142V6.91356H50.6214V11.6113Z" fill="white" stroke="white" stroke-width="0.16" stroke-miterlimit="10"/>
<path d="M54.8505 11.6113V6.25586H55.5507V11.6113H54.8505Z" fill="white" stroke="white" stroke-width="0.16" stroke-miterlimit="10"/>
<path d="M58.6548 11.6113H57.9592V6.91356H56.434V6.25586H60.1801V6.91356H58.6548V11.6113Z" fill="white" stroke="white" stroke-width="0.16" stroke-miterlimit="10"/>
<path d="M67.2625 10.9221C66.7257 11.4637 66.0607 11.7339 65.2674 11.7339C64.4696 11.7339 63.8046 11.4637 63.2678 10.9221C62.7322 10.3816 62.4654 9.71841 62.4654 8.93338C62.4654 8.14835 62.7322 7.48507 63.2678 6.94462C63.8046 6.40304 64.4696 6.13281 65.2674 6.13281C66.0562 6.13281 66.7212 6.40304 67.258 6.94909C67.7982 7.49401 68.0649 8.15286 68.0649 8.93338C68.0649 9.71841 67.7981 10.3816 67.2625 10.9221ZM63.7865 10.4733C64.1905 10.8741 64.6818 11.0751 65.2674 11.0751C65.8485 11.0751 66.3444 10.8741 66.7439 10.4733C67.1468 10.0724 67.351 9.55755 67.351 8.93338C67.351 8.3092 67.1468 7.7944 66.7439 7.39351C66.3444 6.99263 65.8485 6.79164 65.2674 6.79164C64.6818 6.79164 64.1905 6.99263 63.7865 7.39351C63.3836 7.7944 63.1793 8.3092 63.1793 8.93338C63.1793 9.55755 63.3836 10.0724 63.7865 10.4733Z" fill="white" stroke="white" stroke-width="0.16" stroke-miterlimit="10"/>
<path d="M69.0485 11.6113V6.25586H69.8997L72.5461 10.4209H72.5768L72.5461 9.39141V6.25586H73.2464V11.6113H72.5155L69.7442 7.24074H69.7135L69.7442 8.27479V11.6113H69.0485Z" fill="white" stroke="white" stroke-width="0.16" stroke-miterlimit="10"/>
<path d="M62.2949 19.4317C60.1625 19.4317 58.4204 21.0285 58.4204 23.2316C58.4204 25.4169 60.1625 27.0305 62.2949 27.0305C64.4318 27.0305 66.1739 25.4169 66.1739 23.2316C66.1739 21.0285 64.4318 19.4317 62.2949 19.4317ZM62.2949 25.5342C61.1248 25.5342 60.1182 24.5839 60.1182 23.2316C60.1182 21.8616 61.1248 20.928 62.2949 20.928C63.4649 20.928 64.4761 21.8616 64.4761 23.2316C64.4761 24.5839 63.4649 25.5342 62.2949 25.5342ZM53.8413 19.4317C51.7043 19.4317 49.9669 21.0285 49.9669 23.2316C49.9669 25.4169 51.7043 27.0305 53.8413 27.0305C55.9771 27.0305 57.7157 25.4169 57.7157 23.2316C57.7157 21.0285 55.9771 19.4317 53.8413 19.4317ZM53.8413 25.5342C52.6702 25.5342 51.6601 24.5839 51.6601 23.2316C51.6601 21.8616 52.6702 20.928 53.8413 20.928C55.0113 20.928 56.0179 21.8616 56.0179 23.2316C56.0179 24.5839 55.0113 25.5342 53.8413 25.5342ZM43.7819 20.5964V22.2111H47.7006C47.5859 23.1133 47.2795 23.7766 46.8097 24.2389C46.2377 24.7972 45.3469 25.4169 43.7819 25.4169C41.3703 25.4169 39.4819 23.5019 39.4819 21.129C39.4819 18.7562 41.3703 16.8411 43.7819 16.8411C45.0859 16.8411 46.0346 17.3425 46.7348 17.9923L47.8913 16.8545C46.9118 15.9344 45.609 15.2275 43.7819 15.2275C40.4749 15.2275 37.6956 17.8751 37.6956 21.129C37.6956 24.3829 40.4749 27.0305 43.7819 27.0305C45.5693 27.0305 46.9118 26.4543 47.9673 25.3734C49.0488 24.3093 49.3858 22.8129 49.3858 21.6047C49.3858 21.2295 49.354 20.8844 49.2973 20.5964H43.7819ZM84.9157 21.8482C84.5969 20.9983 83.6129 19.4317 81.6094 19.4317C79.6228 19.4317 77.9696 20.9716 77.9696 23.2316C77.9696 25.36 79.6058 27.0305 81.7997 27.0305C83.5735 27.0305 84.5969 25.9663 85.0185 25.3466L83.7019 24.4834C83.2625 25.1154 82.6645 25.5342 81.7997 25.5342C80.941 25.5342 80.3244 25.1467 79.9291 24.383L85.0944 22.2803L84.9157 21.8482ZM79.6506 23.1133C79.6058 21.6483 80.8064 20.8978 81.6666 20.8978C82.3412 20.8978 82.9128 21.2295 83.1039 21.7041L79.6506 23.1133ZM75.4525 26.7994H77.1502V15.6329H75.4525V26.7994ZM72.6721 20.2781H72.6153C72.234 19.8337 71.5066 19.4317 70.585 19.4317C68.6512 19.4317 66.8831 21.1022 66.8831 23.244C66.8831 25.3734 68.6512 27.0305 70.585 27.0305C71.5066 27.0305 72.234 26.6251 72.6153 26.1673H72.6721V26.7122C72.6721 28.165 71.8833 28.9455 70.6111 28.9455C69.5738 28.9455 68.9304 28.2086 68.6649 27.5888L67.1884 28.1952C67.614 29.2024 68.7408 30.4418 70.6111 30.4418C72.6017 30.4418 74.2813 29.2894 74.2813 26.4856V19.6629H72.6721V20.2781ZM70.7303 25.5342C69.5602 25.5342 68.5809 24.5705 68.5809 23.244C68.5809 21.9051 69.5602 20.928 70.7303 20.928C71.8833 20.928 72.7923 21.9051 72.7923 23.244C72.7923 24.5705 71.8833 25.5342 70.7303 25.5342ZM92.8642 15.6329H88.8037V26.7994H90.4971V22.5684H92.8642C94.7448 22.5684 96.5891 21.2295 96.5891 19.1001C96.5891 16.9718 94.7402 15.6329 92.8642 15.6329ZM92.9091 21.0151H90.4971V17.1862H92.9091C94.1731 17.1862 94.8949 18.2191 94.8949 19.1001C94.8949 19.9644 94.1731 21.0151 92.9091 21.0151ZM103.376 19.4105C102.152 19.4105 100.88 19.942 100.357 21.1201L101.859 21.7399C102.183 21.1201 102.778 20.9191 103.407 20.9191C104.285 20.9191 105.176 21.4383 105.189 22.3551V22.4723C104.883 22.2982 104.227 22.0402 103.42 22.0402C101.801 22.0402 100.153 22.9168 100.153 24.5527C100.153 26.049 101.478 27.0126 102.968 27.0126C104.108 27.0126 104.736 26.5068 105.131 25.9183H105.189V26.7815H106.824V22.498C106.824 20.5182 105.322 19.4105 103.376 19.4105ZM103.171 25.5297C102.618 25.5297 101.846 25.2595 101.846 24.5839C101.846 23.7196 102.808 23.388 103.641 23.388C104.387 23.388 104.736 23.5499 105.189 23.7632C105.057 24.7972 104.152 25.5297 103.171 25.5297ZM112.783 19.6551L110.836 24.4957H110.778L108.766 19.6551H106.94L109.964 26.4197L108.238 30.1839H110.008L114.666 19.6551H112.783ZM97.5197 26.7994H99.2177V15.6329H97.5197V26.7994Z" fill="white"/>
</g>
<defs>
<clipPath id="clip0_4971_712">
<rect width="123" height="36" fill="white"/>
</clipPath>
</defs>
</svg>
