<svg width="173" height="39" viewBox="0 0 173 39" fill="none" xmlns="http://www.w3.org/2000/svg">
<path fill-rule="evenodd" clip-rule="evenodd" d="M86.2333 38.8269H0V0H86.2333V38.8269Z" fill="#ED1C24"/>
<path fill-rule="evenodd" clip-rule="evenodd" d="M48.688 5.1626H54.0006L56.3606 22.3082L58.7172 5.1626H63.8835L59.3646 33.5882H53.3741L48.688 5.1626Z" fill="white"/>
<path fill-rule="evenodd" clip-rule="evenodd" d="M47.3824 22.5955L50.6162 33.58L45.5125 33.589L43.1426 24.3676C42.7511 24.4208 42.3446 24.4538 41.9219 24.4641V33.5881H36.8014V5.16211L41.9219 5.1694C47.8069 5.16597 50.5931 10.1544 50.6595 14.8251C50.7024 17.8163 49.6429 20.7624 47.3824 22.5955ZM41.9214 10.2766C44.3054 10.298 45.3195 12.3566 45.3452 14.5884C45.3714 16.8708 44.2724 19.3282 41.9214 19.3543V10.2766Z" fill="white"/>
<path fill-rule="evenodd" clip-rule="evenodd" d="M26.2255 5.1626C28.4937 5.1626 30.7624 5.1626 33.0302 5.1626L37.3215 33.5886H32.201L31.6586 29.2202H27.5976L27.0552 33.5886H21.9347L26.2255 5.1626ZM31.0952 24.6807L29.6283 12.5633L28.1614 24.6807H31.0952Z" fill="white"/>
<path fill-rule="evenodd" clip-rule="evenodd" d="M4.70068 5.1626H11.3065L13.5065 19.513L15.7066 5.1626H22.3124V33.5882H17.1919V19.7296L15.0231 33.637H11.99L9.82118 19.7296V33.5882H4.70068V5.1626Z" fill="white"/>
<path fill-rule="evenodd" clip-rule="evenodd" d="M79.0851 28.4346H83.4278V33.5882H73.9646V5.1626H79.0851V28.4346Z" fill="white"/>
<path fill-rule="evenodd" clip-rule="evenodd" d="M68.5225 28.4346H73.1109V33.5882H63.4016V5.1626H73.1109V10.4113H68.5225V16.7598H73.1109V21.9772H68.5225V28.4346Z" fill="white"/>
<path fill-rule="evenodd" clip-rule="evenodd" d="M143.214 5.18457H146.49V33.6046H143.214V5.18457Z" fill="white"/>
<path fill-rule="evenodd" clip-rule="evenodd" d="M129.623 5.18457C131.396 5.18457 133.169 5.18457 134.942 5.18457C139.689 5.18457 141.336 7.54844 141.336 11.6433C141.336 16.8105 141.336 21.9786 141.336 27.1458C141.336 31.2407 139.689 33.6046 134.942 33.6046C133.169 33.6046 131.396 33.6046 129.623 33.6046V5.18457ZM137.961 10.9765C137.961 9.44665 137.138 8.18775 134.763 8.18775H132.898V30.601H134.763C137.138 30.601 137.961 29.3425 137.961 27.8122C137.961 22.2007 137.961 16.5884 137.961 10.9765Z" fill="white"/>
<path fill-rule="evenodd" clip-rule="evenodd" d="M116.033 5.18457H119.308V28.5784C119.308 29.481 119.542 30.8308 121.388 30.8308H122.252C124.181 30.8308 124.332 29.4806 124.332 28.5784C124.332 20.781 124.332 12.9819 124.332 5.18457H127.607C127.607 13.0441 127.608 20.9032 127.608 28.7628C127.608 32.3028 125.602 33.8344 122.914 33.8344H120.821C118.133 33.8344 116.033 32.1892 116.033 28.7628V5.18457H116.033Z" fill="white"/>
<path fill-rule="evenodd" clip-rule="evenodd" d="M151.728 28.5789C151.728 29.4814 151.969 30.8312 153.871 30.8312H154.762C156.749 30.8312 156.904 29.481 156.904 28.5789C156.904 22.4572 156.904 16.3346 156.904 10.2125C156.904 9.30989 156.749 7.96009 154.762 7.96009H153.871C151.969 7.96009 151.728 9.30989 151.728 10.2125C151.728 16.3342 151.728 22.4567 151.728 28.5789ZM160.28 28.7632C160.28 32.3032 158.213 33.8348 155.443 33.8348H153.287C150.518 33.8348 148.353 32.1896 148.353 28.7632C148.353 22.518 148.353 16.2729 148.353 10.0277C148.353 6.60129 150.518 4.95605 153.287 4.95605H155.444C158.213 4.95605 160.28 6.48766 160.28 10.0277C160.28 16.2729 160.28 22.518 160.28 28.7632Z" fill="white"/>
<path fill-rule="evenodd" clip-rule="evenodd" d="M110.59 8.2302V33.6046H107.314V8.2302H103.053V5.18457H114.852V8.2302H110.59Z" fill="white"/>
<path fill-rule="evenodd" clip-rule="evenodd" d="M166.468 4.93555C163.701 4.93555 161.544 6.6065 161.544 10.0393C161.544 11.0765 161.544 12.1142 161.544 13.151C161.544 15.3969 161.919 16.5491 162.756 17.5893C163.605 18.6454 166.049 20.2113 168.038 21.7C169.222 22.5859 169.663 23.2419 169.663 24.2461C169.663 25.701 169.663 27.1554 169.663 28.6107C169.663 29.5132 169.574 30.9192 167.675 30.9192H166.877C164.892 30.9192 164.785 29.5128 164.785 28.6107V24.7092L161.576 24.701V28.7873C161.576 32.3346 163.509 33.8992 166.422 33.8992H168.042C170.994 33.8992 172.976 32.2802 172.976 28.7753C172.976 27.272 172.976 25.7687 172.976 24.2658C172.976 21.7467 172.061 20.6135 170.763 19.5544C169.512 18.5335 167.44 17.1635 166.157 16.155C165.189 15.3931 164.919 14.9506 164.919 13.6145C164.919 12.4847 164.919 11.3544 164.919 10.2241C164.919 9.3194 165.016 7.93615 166.918 7.93615H167.571C169.559 7.93615 169.591 9.32198 169.591 10.2241V12.6643H172.966V10.0393C172.966 6.49159 170.856 4.93555 168.088 4.93555H166.468Z" fill="white"/>
<path fill-rule="evenodd" clip-rule="evenodd" d="M95.931 4.93555C93.165 4.93555 91.0078 6.6065 91.0078 10.0393C91.0078 11.0765 91.0078 12.1142 91.0078 13.151C91.0078 15.3969 91.3829 16.5491 92.2191 17.5893C93.0685 18.6454 95.5121 20.2113 97.5016 21.7C98.6855 22.5859 99.1263 23.2419 99.1263 24.2461C99.1263 25.701 99.1263 27.1554 99.1263 28.6107C99.1263 29.5132 99.0384 30.9192 97.138 30.9192H96.3405C94.3552 30.9192 94.2489 29.5128 94.2489 28.6107V24.7092L91.0395 24.701V28.7873C91.0395 32.3346 92.9729 33.8992 95.8856 33.8992H97.5055C100.457 33.8992 102.439 32.2802 102.439 28.7753C102.439 27.272 102.439 25.7687 102.439 24.2658C102.439 21.7467 101.524 20.6135 100.226 19.5544C98.9754 18.5335 96.9039 17.1635 95.621 16.155C94.652 15.3931 94.3827 14.9506 94.3827 13.6145C94.3827 12.4847 94.3827 11.3544 94.3827 10.2241C94.3827 9.3194 94.4792 7.93615 96.3812 7.93615H97.0347C99.0221 7.93615 99.0543 9.32198 99.0543 10.2241V12.6643H102.429V10.0393C102.429 6.49159 100.32 4.93555 97.5514 4.93555H95.931Z" fill="white"/>
<path fill-rule="evenodd" clip-rule="evenodd" d="M90.952 0H173V1.54533H90.952V0Z" fill="white"/>
<path fill-rule="evenodd" clip-rule="evenodd" d="M90.952 37.2817H173V38.8271H90.952V37.2817Z" fill="white"/>
</svg>
