<svg width="25" height="25" viewBox="0 0 25 25" fill="none" xmlns="http://www.w3.org/2000/svg">
<mask id="mask0_4919_966" style="mask-type:luminance" maskUnits="userSpaceOnUse" x="0" y="0" width="25" height="25">
<path d="M24.2953 0H0V24.333H24.2953V0Z" fill="white"/>
</mask>
<g mask="url(#mask0_4919_966)">
<path d="M13.7079 1.14275C13.7322 1.14633 13.7565 1.14991 13.7815 1.15361C13.9053 1.17244 14.0278 1.19503 14.1502 1.22124C14.1975 1.23134 14.2448 1.24111 14.2922 1.25068C16.0468 1.60537 17.7173 2.39311 19.0947 3.53872C19.1299 3.56776 19.1655 3.59626 19.2011 3.62467C19.4906 3.85541 19.7519 4.11872 20.0137 4.37993C20.0339 4.40019 20.0542 4.42044 20.0752 4.44131C20.1898 4.55641 20.2997 4.67388 20.4048 4.79777C20.4207 4.81625 20.4207 4.81625 20.4369 4.83511C20.9562 5.43808 21.4088 6.08842 21.7903 6.78726C21.8024 6.8094 21.8145 6.83167 21.8271 6.85454C22.1052 7.36699 22.3413 7.90062 22.5293 8.45285C22.5372 8.47597 22.5452 8.49921 22.5535 8.52318C22.6963 8.94122 22.8069 9.36242 22.8987 9.79445C22.9035 9.81635 22.9082 9.83813 22.9131 9.86064C22.9934 10.2356 23.04 10.6167 23.0835 10.9975C23.0856 11.0139 23.0876 11.0304 23.0897 11.0475C23.109 11.2174 23.1107 11.3867 23.1113 11.5576C23.1114 11.5895 23.1116 11.6213 23.1118 11.653C23.1122 11.7545 23.1123 11.8559 23.1124 11.9574C23.1124 11.9747 23.1124 11.9918 23.1124 12.0096C23.1129 12.6209 23.102 13.2221 22.9849 13.8242C22.9705 13.8989 22.9579 13.9736 22.9462 14.0488C22.9191 14.2145 22.882 14.3778 22.8445 14.5415C22.8324 14.5945 22.8205 14.6477 22.8086 14.7008C22.7643 14.8972 22.7119 15.087 22.6447 15.277C22.629 15.3266 22.6136 15.3762 22.5986 15.426C22.5909 15.4509 22.5833 15.4757 22.5755 15.5014C22.5598 15.553 22.5445 15.6046 22.5293 15.6563C22.4907 15.7862 22.4497 15.9108 22.3919 16.0334C22.368 16.0859 22.3467 16.1387 22.3258 16.1923C22.0317 16.9335 21.6427 17.6157 21.213 18.2844C21.1318 18.2496 21.0796 18.2027 21.0174 18.1403C20.9969 18.1197 20.9764 18.0993 20.9552 18.0781C20.9327 18.0554 20.9102 18.0326 20.8876 18.0099C20.8636 17.9859 20.8398 17.962 20.8159 17.938C20.751 17.8731 20.6863 17.808 20.6216 17.743C20.554 17.6748 20.4862 17.6069 20.4185 17.539C20.2903 17.4104 20.1621 17.2817 20.0341 17.1529C19.8882 17.0063 19.7423 16.8598 19.5963 16.7134C19.296 16.4121 18.9959 16.1107 18.6959 15.8091C18.7259 15.7328 18.758 15.6598 18.7957 15.5871C18.9408 15.3042 19.0691 15.0195 19.1808 14.7219C19.1865 14.7069 19.1921 14.692 19.1979 14.6765C19.2094 14.6465 19.2205 14.6163 19.2317 14.5862C19.245 14.5507 19.2584 14.5154 19.272 14.4801C19.3373 14.3079 19.3831 14.1332 19.4262 13.9541C19.4331 13.926 19.44 13.8977 19.4471 13.8687C19.4605 13.8141 19.4737 13.7596 19.4868 13.7051C19.5001 13.6512 19.5143 13.5981 19.5291 13.5447C19.5625 13.4112 19.5755 13.2735 19.592 13.1371C19.5978 13.0887 19.6039 13.0402 19.6101 12.9918C19.7408 11.942 19.6996 10.7674 19.3136 9.77073C19.2892 9.70613 19.2682 9.64055 19.2469 9.57497C19.1868 9.38967 19.1226 9.20864 19.0423 9.03113C19.0346 9.01397 19.0268 8.99682 19.0189 8.97918C18.6466 8.16001 18.1422 7.39218 17.4951 6.76402C17.4385 6.70781 17.3823 6.65124 17.3267 6.59381C17.1905 6.45414 17.0474 6.32992 16.8947 6.20886C16.8713 6.18964 16.8479 6.17054 16.8238 6.15071C16.1681 5.61621 15.4198 5.22162 14.6266 4.93664C14.5833 4.92099 14.5399 4.90509 14.4968 4.88897C14.366 4.84029 14.2356 4.79768 14.1005 4.76307C14.0818 4.75825 14.0631 4.75342 14.0438 4.74844C13.7547 4.67493 13.4652 4.61475 13.1695 4.57367C13.1497 4.57091 13.1299 4.56815 13.1095 4.5653C12.7643 4.51999 12.4203 4.51463 12.0727 4.5144C12.0485 4.51437 12.0244 4.51435 11.9996 4.51432C11.6405 4.51456 11.2911 4.5256 10.9368 4.58957C10.9173 4.59292 10.8979 4.59627 10.8778 4.59971C9.47713 4.84403 8.13679 5.4609 7.09053 6.43431C7.0423 6.47896 6.99325 6.52191 6.94321 6.56461C6.75192 6.73129 6.57245 6.91562 6.41065 7.11113C6.40027 7.12342 6.3899 7.13583 6.37921 7.1486C5.96375 7.64573 5.59623 8.18811 5.32337 8.7777C5.30118 8.82515 5.27799 8.87199 5.25475 8.91895C5.13152 9.17408 5.03832 9.43797 4.94859 9.70637C4.94271 9.72377 4.93683 9.74116 4.93077 9.75917C4.83158 10.0549 4.73207 10.3609 4.70657 10.6734C4.70124 10.7252 4.69112 10.7745 4.68014 10.8253C4.64599 10.9891 4.62787 11.1553 4.60943 11.3214C4.60747 11.3385 4.60553 11.3558 4.60351 11.3735C4.58933 11.506 4.58208 11.6371 4.58083 11.7702C4.5806 11.7904 4.58037 11.8104 4.58014 11.8312C4.56454 13.5866 5.05594 15.2975 6.15663 16.6881C6.17518 16.7116 6.19371 16.7352 6.21282 16.7594C6.31249 16.8833 6.41656 17.0025 6.52358 17.1202C6.56667 17.1677 6.60857 17.2161 6.65023 17.2651C6.81013 17.4486 6.986 17.6193 7.17269 17.7754C7.1916 17.7913 7.21051 17.8071 7.22998 17.8234C7.29513 17.8774 7.3608 17.9306 7.42671 17.9836C7.44875 18.0015 7.47077 18.0194 7.49346 18.0377C8.08987 18.5103 8.78157 18.909 9.50486 19.147C9.55469 19.1646 9.60268 19.1853 9.65127 19.2061C9.81349 19.2719 9.98262 19.3138 10.1517 19.3579C10.2087 19.3729 10.2656 19.3881 10.3225 19.4034C10.5715 19.4695 10.8204 19.5199 11.0754 19.5566C11.0908 19.5589 11.1062 19.5612 11.1221 19.5635C11.4681 19.6127 11.8095 19.6139 12.1607 19.6261C12.1607 17.1374 12.1607 14.6488 12.1607 12.0847C12.3425 12.2408 12.3425 12.2408 12.4118 12.3101C12.4276 12.3259 12.4435 12.3418 12.4597 12.3581C12.4851 12.3836 12.4851 12.3836 12.511 12.4095C12.5295 12.428 12.5479 12.4464 12.5669 12.4654C12.6287 12.5273 12.6903 12.5891 12.752 12.651C12.7967 12.6958 12.8415 12.7406 12.8863 12.7853C12.9834 12.8827 13.0806 12.98 13.1778 13.0773C13.3224 13.2222 13.4669 13.367 13.6115 13.5117C13.8696 13.7702 14.1277 14.0288 14.3858 14.2874C14.6116 14.5136 14.8373 14.7398 15.0631 14.966C15.0856 14.9885 15.0856 14.9885 15.1084 15.0113C15.1693 15.0723 15.23 15.1331 15.2908 15.1939C15.8609 15.7649 16.4308 16.336 17.0008 16.9071C17.5075 17.4148 18.0143 17.9225 18.5212 18.4301C19.0904 19.0002 19.6596 19.5704 20.2287 20.1406C20.2893 20.2013 20.3499 20.262 20.4105 20.3227C20.4255 20.3377 20.4404 20.3527 20.4558 20.3681C20.6815 20.5943 20.9074 20.8205 21.1332 21.0465C21.3897 21.3035 21.6462 21.5604 21.9026 21.8175C22.0463 21.9614 22.19 22.1054 22.3337 22.2493C22.4296 22.3453 22.5254 22.4413 22.6212 22.5373C22.6758 22.5922 22.7305 22.6469 22.7853 22.7017C22.8441 22.7604 22.9027 22.8193 22.9614 22.8782C22.9787 22.8955 22.9959 22.9127 23.0138 22.9305C23.0292 22.9461 23.0446 22.9617 23.0605 22.9776C23.0807 22.9978 23.0807 22.9978 23.1013 23.0185C23.1297 23.0497 23.1297 23.0497 23.1297 23.0729C22.3782 23.1546 21.6263 23.2085 20.8709 23.2392C20.8432 23.2403 20.8155 23.2415 20.787 23.2427C19.4456 23.297 18.2539 23.2995 17.2224 22.3496C17.0199 22.159 16.8339 21.9545 16.6522 21.7442C16.6316 21.7204 16.6316 21.7204 16.6105 21.6961C16.2685 21.3007 15.951 20.8903 15.6582 20.4569C15.6277 20.4099 15.6276 20.4099 15.5784 20.3894C15.5784 21.0918 15.5784 21.794 15.5784 22.5177C15.3204 22.6038 15.0688 22.6857 14.8062 22.7519C14.7751 22.7598 14.744 22.7678 14.7128 22.7758C14.2577 22.8911 13.8043 22.9699 13.3384 23.0266C13.3103 23.0304 13.2823 23.0342 13.2532 23.0381C12.1739 23.1726 11.0265 23.0996 9.96373 22.8784C9.90116 22.8654 9.83849 22.853 9.77576 22.8408C9.55427 22.797 9.33885 22.7412 9.12334 22.674C9.0594 22.6543 8.99521 22.6356 8.93098 22.6169C7.78004 22.2775 6.65733 21.7349 5.69477 21.014C5.66389 20.9912 5.63301 20.9684 5.60213 20.9455C5.35001 20.7584 5.10744 20.5641 4.87643 20.3511C4.82518 20.3041 4.77322 20.2584 4.72055 20.213C4.64113 20.144 4.56754 20.0704 4.49387 19.9953C4.44973 19.9519 4.40412 19.9118 4.35684 19.8718C4.26803 19.7951 4.19128 19.7109 4.11392 19.6227C4.0713 19.5747 4.02829 19.5278 3.98421 19.4812C3.83518 19.3237 3.69563 19.1628 3.56394 18.9905C3.52254 18.9364 3.48019 18.8833 3.43657 18.831C2.88973 18.1717 2.42843 17.3846 2.09233 16.5957C2.08264 16.5729 2.07293 16.5503 2.06295 16.5269C2.03024 16.4501 1.99776 16.3732 1.96532 16.2964C1.95439 16.2706 1.94347 16.2448 1.93221 16.2181C1.73795 15.758 1.58921 15.2992 1.46883 14.8144C1.46298 14.7912 1.45715 14.7681 1.45114 14.7443C1.23482 13.8862 1.11714 13.0276 1.11811 12.1425C1.11812 12.1209 1.11812 12.0993 1.11813 12.0771C1.11885 11.5341 1.13825 10.9927 1.22788 10.4562C1.23888 10.39 1.24927 10.3238 1.25965 10.2576C1.34984 9.68934 1.48828 9.14269 1.67089 8.59739C1.67691 8.57938 1.68292 8.56138 1.68911 8.54276C1.78864 8.24529 1.89685 7.95354 2.02305 7.66629C2.0319 7.64573 2.04075 7.62517 2.04988 7.60412C2.19211 7.27501 2.35387 6.95978 2.53108 6.64844C2.5432 6.62703 2.55533 6.60573 2.56783 6.58371C2.74169 6.27894 2.92782 5.98552 3.13149 5.69996C3.15156 5.67181 3.15156 5.67181 3.17203 5.64308C3.32409 5.43085 3.48 5.22391 3.65117 5.02675C3.70493 4.96421 3.75599 4.9002 3.80695 4.83536C3.90903 4.70926 4.02234 4.59608 4.13825 4.48291C4.22053 4.40234 4.2971 4.31966 4.3711 4.23143C4.40798 4.18894 4.44778 4.15263 4.49107 4.1168C4.55548 4.06202 4.6156 4.00553 4.67437 3.94474C4.76459 3.85294 4.86217 3.77292 4.96239 3.69236C5.01862 3.6464 5.07252 3.599 5.12611 3.55003C5.6459 3.08362 6.26244 2.70304 6.8725 2.3688C6.89467 2.35663 6.91684 2.34447 6.93968 2.33193C7.39491 2.08403 7.86986 1.84998 8.3672 1.69938C8.43048 1.67881 8.49063 1.65577 8.55212 1.63053C9.17639 1.3772 9.85779 1.24571 10.5211 1.14275C10.5452 1.13898 10.5452 1.13898 10.5698 1.13513C11.5917 0.97729 12.6865 0.987632 13.7079 1.14275Z" fill="#F84565"/>
<path d="M15.9578 13.749C15.9661 13.7657 15.9745 13.7825 15.9832 13.7996C15.9623 13.8206 15.9414 13.8415 15.9199 13.863C15.9324 13.8254 15.9449 13.7877 15.9578 13.749Z" fill="#F84565"/>
<path d="M7.01145 8.98633C7.0241 9.02441 7.0241 9.02441 7.00829 9.05689C6.98614 9.0878 6.98614 9.0878 6.94818 9.1131C6.96508 9.0676 6.98564 9.02745 7.01145 8.98633Z" fill="#F84565"/>
</g>
</svg>
